<?xml version="1.0" encoding="utf-8"?>
<!-- Generator: Adobe Illustrator 18.1.1, SVG Export Plug-In . SVG Version: 6.00 Build 0)  -->
<!DOCTYPE svg PUBLIC "-//W3C//DTD SVG 1.1//EN" "http://www.w3.org/Graphics/SVG/1.1/DTD/svg11.dtd">
<svg version="1.1" id="dsc-crest" xmlns="http://www.w3.org/2000/svg" xmlns:xlink="http://www.w3.org/1999/xlink" x="0px" y="0px"
	 viewBox="-471 473 80 80" enable-background="new -471 473 80 80" xml:space="preserve">
<g>
	<path fill="#EA6826" d="M-427.3,473.2c-25-2.3-45.8,18.5-43.5,43.5c1.7,19.1,17.1,34.5,36.2,36.2c24.9,2.2,45.7-18.6,43.5-43.5
		C-392.9,490.3-408.2,474.9-427.3,473.2z M-395.1,513c0,19.8-16.1,35.9-35.9,35.9s-35.9-16.1-35.9-35.9s16.1-35.9,35.9-35.9
		S-395.1,493.2-395.1,513z"/>
	<path fill="#EA6826" d="M-431.1,497.2c-0.5,0-1.1-0.3-1.4-0.7l-1.1,1.2c0.7,0.6,1.5,0.9,2.4,0.9c1.5,0,2.8-0.8,2.8-2.4
		c0-2.5-3.3-1.7-3.3-3c0-0.5,0.6-0.7,1.1-0.7c0.4,0,0.9,0.2,1.1,0.5l1.1-1.2c-0.6-0.5-1.4-0.8-2.2-0.8c-1.4,0-2.7,0.8-2.7,2.3
		c0,2.4,3.4,1.7,3.4,3C-430.1,496.9-430.6,497.2-431.1,497.2z"/>
	<path fill="#EA6826" d="M-413.3,511.8c0.6,0,1,0.2,1.4,0.6l1.2-1c-0.6-0.8-1.6-1.1-2.4-1.1c-2.2,0-3.9,1.5-3.9,3.8
		c0,2.3,1.6,3.8,3.9,3.8c1,0,2-0.4,2.6-1.3l-1.3-1c-0.3,0.5-0.8,0.8-1.5,0.8c-1.1,0-2-1-2-2.3C-415.3,512.8-414.5,511.8-413.3,511.8
		z"/>
	<path fill="#EA6826" d="M-445,514.2c0-2.6-1.9-3.6-4.3-3.6h-2.4v7.2h2.6C-446.9,517.7-445,516.5-445,514.2z M-449.3,516.3h-0.8V512
		h0.9c1.3,0,2.5,0.7,2.5,2.1C-446.7,515.7-447.8,516.3-449.3,516.3z"/>
	<path fill="#EA6826" d="M-423.2,506c0,0,0.4-1.1,1.7-1.9c0,0,4.3-2.9,5.4-3l1.3,1.7l0.2,0.1l0.9-0.5l0.6,0.3l2.5,3.4
		c0,0,0.9,0.6,1.8-0.7c0,0,0.5-0.5,0.5-1.3l-10.8-14.4c0,0-1.3-0.5-1.7,0.9l-0.2,1.6l2.3,3.1l-0.2,0.9l-0.3,0.1l-0.1,0.6l0.8,1.1
		c0,0-3.4,2.3-4.3,3.3l-4.8,4.1l-3.4,3l0,0l0,0l0,0l0,0l-3.4-3.3l-4.8-4.1c-0.9-1-4.3-3.3-4.3-3.3l0.8-1.1l-0.1-0.6l-0.3-0.1
		l-0.2-0.9l2.3-3.1l-0.2-1.6c-0.4-1.4-1.7-0.9-1.7-0.9l-10.9,14.6c0,0.8,0.5,1.3,0.5,1.3c0.9,1.3,1.8,0.7,1.8,0.7l2.5-3.4l0.6-0.3
		l0.9,0.5l0.2-0.1l1.3-1.7c1.1,0.1,5.4,3,5.4,3c1.3,0.8,1.7,1.9,1.7,1.9c0.6,1.8,1.9,2.8,1.9,2.8l2.8,2.7l-17.7,17
		c0,0-1.9,1.8-1.2,2.8c0,0,1.5,2,4.1-0.1l6.6-6l11.4-10.7l11.4,10.8l6.6,6c2.6,2,4.1,0.1,4.1,0.1c0.7-1-1.2-2.8-1.2-2.8l-17.7-17
		l2.8-2.7C-425.1,508.8-423.8,507.8-423.2,506z"/>
</g>
</svg>
