<?xml version="1.0" encoding="utf-8"?>
<!-- Generator: Adobe Illustrator 18.1.1, SVG Export Plug-In . SVG Version: 6.00 Build 0)  -->
<!DOCTYPE svg PUBLIC "-//W3C//DTD SVG 1.1//EN" "http://www.w3.org/Graphics/SVG/1.1/DTD/svg11.dtd">
<svg version="1.1" id="Layer_1" xmlns="http://www.w3.org/2000/svg" xmlns:xlink="http://www.w3.org/1999/xlink" x="0px" y="0px"
	 viewBox="-319.8 481.1 133.2 52.2" enable-background="new -319.8 481.1 133.2 52.2" xml:space="preserve">
<g id="Layer_2">
</g>
<g>
	<g>
		<path fill="#00B0DF" d="M-303.1,481.2c1.3-0.3,2.7,0.8,2.7,2.2c0.1,1-0.6,1.9-1.5,2.2c-0.7,0.3-1.6,0.1-2.2-0.4
			c-0.7-0.5-0.9-1.5-0.7-2.3C-304.6,482-303.9,481.3-303.1,481.2z"/>
		<path fill="#00B0DF" d="M-317.1,491.6c1.1-0.2,2.2,0.1,3,0.9c0.9,0.9,1.3,2.4,0.7,3.6c-0.5,1.2-1.6,2-2.9,2c-1,0.1-1.9-0.3-2.6-1
			c-0.7-0.8-1.1-1.9-0.8-2.9C-319.5,492.9-318.4,491.8-317.1,491.6z"/>
	</g>
	<g>
		<path fill="#EB8F20" d="M-302.5,487c1.5-1.6,3.7-2.6,5.9-2.5c1.7,0,3.3,0.5,4.7,1.4c2,1.3,3.4,3.6,3.6,6c0,0.9,0,1.9-0.2,2.8
			c-1.7-1.2-3.7-1.8-5.8-1.6c-1.7,0.1-3.4,0.8-4.7,1.9c-1.3,1.2-2.3,2.7-2.7,4.4l0,0c-0.8-0.7-1.5-1.5-2.1-2.4
			c1.1-0.7,2.1-1.7,2.5-3c-1.1-0.5-2.4-0.8-3.6-0.8c-0.1-1.9,0.4-3.8,1.6-5.2c0.1-0.2,0.2-0.3,0.2-0.5
			C-302.8,487.4-302.6,487.1-302.5,487z"/>
	</g>
	<g>
		<path fill="#0CA748" d="M-308.1,486.5c0.3-0.1,0.5-0.1,0.8-0.2c0.8-0.1,1.7-0.1,2.5,0.1c0.7,0.2,1.4,0.5,1.9,0.9
			c0,0.2-0.1,0.4-0.2,0.5c-1.1,1.5-1.6,3.4-1.6,5.2c1.2,0,2.5,0.3,3.6,0.8c-0.4,1.3-1.4,2.3-2.5,3c-2.2,1.3-5.2,0.7-6.9-1.2
			c-1-1.1-1.6-2.7-1.4-4.2c0.1-2.1,1.5-4,3.5-4.8C-308.4,486.6-308.3,486.6-308.1,486.5z"/>
	</g>
	<g>
		<path fill="#FBC088" d="M-288.2,491.9c0.2,0.5,0.1,1.1,0.1,1.7c-0.1,0.9-0.4,1.8-0.7,2.6c-0.6,1.3-1.5,2.4-2.6,3.3
			c-1.4,1.1-3.2,1.7-5,1.7c-1.8,0-3.7-0.6-5.1-1.8c0.4-1.7,1.4-3.2,2.7-4.4c1.3-1.1,3-1.8,4.7-1.9c2.1-0.2,4.1,0.4,5.8,1.6
			C-288.2,493.8-288.1,492.8-288.2,491.9z"/>
	</g>
	<g>
		<path fill="#FEE600" d="M-312.7,502.7c-0.4-2.5,0.4-5.1,2.1-6.9c1.7,1.9,4.7,2.4,6.9,1.2c0.5,0.9,1.2,1.7,2.1,2.4
			c-0.3,1.3-0.4,2.7,0,4c0.4,1.6,1.2,3,2.4,4.2c-1.4,1.2-3.2,1.9-5.1,2c-1.9,0.1-3.7-0.5-5.2-1.6
			C-311.3,506.7-312.4,504.7-312.7,502.7z"/>
	</g>
	<g>
		<path fill="#221E1F" d="M-286.3,497.2c2.1,0,4.3,0.3,6.3,1.2c0.1,0.1,0.2,0.1,0.3,0.2c1,0.5,1.8,1.1,2.6,1.9
			c1.7,1.6,2.9,3.7,3.4,5.9c0.6,2.1,0.7,4.3,0.6,6.4c-0.1,2.3-0.6,4.6-1.6,6.6c-0.8,1.6-2,3-3.4,4.2c-0.7,0.6-1.5,1-2.4,1.4
			c-0.2,0.1-0.3,0.1-0.5,0.2c-0.1,0.1-0.3,0.1-0.4,0.2c-0.1,0-0.2,0-0.2,0.1c-0.1,0-0.3,0.1-0.4,0.1c-0.1,0-0.3,0.1-0.4,0.1
			c-0.2,0-0.4,0.1-0.5,0.1c-0.2,0.1-0.4,0.1-0.7,0.1c-0.4,0.1-0.7,0.1-1.1,0.1c-0.5,0.1-1,0.1-1.5,0.1c-0.5,0-0.9,0-1.4-0.1
			c-0.4,0-0.7,0-1.1-0.1c-0.2,0-0.4,0-0.6-0.1c-0.2,0-0.4-0.1-0.5-0.1c-0.1,0-0.3-0.1-0.4-0.1c-0.1,0-0.3-0.1-0.4-0.1
			c-0.1,0-0.2,0-0.2-0.1c-0.1,0-0.2-0.1-0.3-0.1c-0.1-0.1-0.3-0.1-0.4-0.2c-0.3-0.1-0.5-0.2-0.7-0.3c-1.5-0.7-2.7-1.9-3.8-3.1
			c-1.8-2.2-2.7-5-2.9-7.8c-0.1-1.9-0.1-3.8,0.2-5.7c1.1,1,2.5,1.6,3.9,1.9c0.5,0.1,1,0.1,1.5,0.2c-0.1,0.7-0.1,1.4-0.1,2.1
			c0.1,2.1,0.5,4.3,1.8,6.1c0.9,1.3,2.4,2.3,4,2.6c2,0.4,4.2,0.1,5.8-1.2c1.5-1.1,2.4-2.8,2.8-4.6c0.5-2,0.5-4.1,0.2-6.1
			c-0.3-2-1.1-4.1-2.6-5.4c-0.9-0.8-2.1-1.3-3.3-1.5C-284.9,500.4-285.4,498.7-286.3,497.2z"/>
		<path fill="#221E1F" d="M-210.5,498c2.3,0,4.6,0,6.9,0c0.8,1.5,1.6,3,2.4,4.5c0.2,0.3,0.3,0.6,0.5,0.9c0.2,0.4,0.4,0.8,0.6,1.2
			c0.4,0.8,0.8,1.5,1.2,2.3c0.1,0,0.2-0.1,0.2-0.2c1.6-2.9,3.2-5.7,4.8-8.6c0.7-0.1,1.4,0,2,0c1.5,0,3.1,0,4.6,0
			c-2.4,3.8-4.8,7.5-7.2,11.3c-0.4,0.7-0.9,1.3-1.2,2c1.1,1.7,2.2,3.4,3.3,5.1c1.9,3,3.8,6,5.6,9c-2.3,0-4.7,0-7,0
			c0-0.1-0.1-0.2-0.1-0.2c0-0.1-0.1-0.2-0.1-0.2c-0.2-0.3-0.4-0.6-0.5-1c-1.5-2.6-2.9-5.2-4.4-7.8c0,0-0.1,0-0.1,0
			c-0.9,1.7-2,3.3-2.9,5c-0.8,1.4-1.7,2.9-2.5,4.3c-2.2,0-4.5,0-6.7,0c2.9-4.7,5.9-9.3,8.8-14C-204.9,507-207.7,502.5-210.5,498z"/>
		<g>
			<path fill="#221E1F" d="M-262.9,505.1c1.1-0.3,2.2-0.3,3.3-0.2c0.5,0.1,0.9,0.2,1.4,0.3c0.1,0,0.2,0.1,0.3,0.1
				c1.5,0.6,2.8,1.6,3.7,2.9c0.7,1.1,1.2,2.3,1.5,3.6c0.1,0.5,0.1,1,0.2,1.5c0.1,1.2,0.1,2.3,0,3.5c-0.2,1.4-0.4,2.9-1,4.2
				c-0.9,2-2.5,3.6-4.5,4.4c-0.1,0-0.2,0.1-0.3,0.1c-0.3,0.1-0.6,0.2-0.9,0.3c-0.2,0-0.4,0-0.6,0.1c-0.8,0.1-1.6,0.1-2.3,0
				c-0.4,0-0.7-0.1-1.1-0.2c-0.1,0-0.2-0.1-0.3-0.1c-0.3-0.1-0.5-0.2-0.7-0.3c-1-0.5-1.8-1.4-2.4-2.4c0,3.5,0,6.9,0,10.4
				c-1.7,0-3.5,0-5.2,0c0-9.3,0-18.7,0-28c1.7,0,3.4,0,5.1,0c0,1,0,1.9,0,2.9c0.8-1.2,1.8-2.3,3.2-2.8
				C-263.4,505.3-263.1,505.2-262.9,505.1z M-265.7,511.1c-0.9,1.4-1.1,3.1-1.1,4.7c0,0.7,0.1,1.5,0.2,2.2c0.2,1.1,0.8,2.2,1.8,2.9
				c1.2,0.8,2.9,0.9,4.2,0.4c1-0.4,1.6-1.3,2.1-2.2c0.1-0.2,0.1-0.4,0.2-0.5c0-0.1,0.1-0.2,0.1-0.3c0.1-0.2,0.1-0.3,0.2-0.5
				c0-0.1,0-0.3,0.1-0.5c0.1-0.3,0.1-0.6,0.1-1c0.1-0.5,0.1-0.9,0-1.4c0-0.3,0-0.7-0.1-1c-0.1-0.2-0.1-0.4-0.1-0.6
				c-0.1-0.3-0.2-0.6-0.3-0.9c-0.3-0.7-0.7-1.5-1.3-2c-0.8-0.7-2-1-3.1-0.9C-263.9,509.5-265.1,510.1-265.7,511.1z"/>
		</g>
		<g>
			<path fill="#221E1F" d="M-243.6,505c1.2-0.2,2.4-0.3,3.5-0.1c0.6,0,1.2,0.2,1.8,0.3c0.1,0,0.2,0.1,0.3,0.1
				c0.2,0.1,0.4,0.1,0.6,0.2c0.1,0.1,0.3,0.1,0.4,0.2c2.1,0.8,3.7,2.6,4.6,4.6c0.1,0.2,0.1,0.4,0.2,0.5c0.1,0.3,0.2,0.6,0.3,0.9
				c0,0.1,0.1,0.3,0.1,0.4c0.4,1.6,0.3,3.2,0.3,4.8c-4.9,0-9.7,0-14.6,0c0,0.6,0.1,1.3,0.3,1.9c0.1,0.2,0.1,0.4,0.2,0.5
				c0.6,1.4,1.9,2.3,3.4,2.5c1.1,0.1,2.3,0.1,3.4-0.4c0.8-0.4,1.3-1,1.7-1.8c1.8,0,3.6,0,5.4,0c-0.1,0.3-0.1,0.5-0.2,0.8
				c0,0.1-0.1,0.2-0.1,0.3c-0.8,1.8-2.2,3.4-4,4.3c-0.1,0.1-0.3,0.1-0.4,0.2c-0.2,0.1-0.4,0.2-0.6,0.3c-0.3,0.1-0.6,0.2-0.9,0.3
				c-0.1,0-0.3,0.1-0.4,0.1c-0.5,0.1-0.9,0.2-1.4,0.2c-0.9,0.1-1.9,0.1-2.8,0c-0.3-0.1-0.6-0.1-0.8-0.1c-0.2,0-0.4-0.1-0.5-0.1
				c-0.1,0-0.3-0.1-0.4-0.1c-0.1,0-0.2,0-0.2-0.1c-0.2-0.1-0.4-0.1-0.6-0.2c-0.2-0.1-0.4-0.1-0.5-0.2c-1.5-0.7-2.9-1.6-3.9-2.9
				c-0.4-0.5-0.7-1.1-0.9-1.7c-0.1-0.1-0.1-0.3-0.2-0.4c-0.1-0.2-0.1-0.4-0.2-0.6c0-0.1-0.1-0.3-0.1-0.4c-0.2-0.7-0.3-1.4-0.3-2.2
				c-0.1-0.5-0.1-0.9-0.1-1.4c0-0.4,0-0.9,0.1-1.3c0-0.5,0.1-1,0.2-1.5c0-0.2,0.1-0.4,0.1-0.5c0.1-0.3,0.1-0.6,0.2-0.8
				c0.1-0.3,0.2-0.6,0.3-0.9c0.9-2.2,2.7-4,5-4.9c0.1-0.1,0.3-0.1,0.4-0.2c0.1,0,0.2,0,0.2-0.1c0.1,0,0.2-0.1,0.3-0.1
				c0.1,0,0.3-0.1,0.4-0.1C-244,505-243.8,505-243.6,505z M-243.2,509.4c-1.1,0.3-1.8,1.2-2.3,2.2c-0.1,0.2-0.1,0.3-0.2,0.5
				c0,0.1-0.1,0.2-0.1,0.3c0,0.1-0.1,0.3-0.1,0.4c0,0.2-0.1,0.4-0.1,0.6c3,0,6,0,9,0c0-1.3-0.6-2.6-1.6-3.4
				C-239.9,509-241.7,508.9-243.2,509.4z"/>
		</g>
		<path fill="#221E1F" d="M-221.5,505.2c0.6-0.2,1.1-0.3,1.7-0.3c1,0,1.9,0,2.9,0.2c0.1,0,0.3,0.1,0.4,0.1c0.2,0.1,0.4,0.1,0.7,0.2
			c1.3,0.5,2.5,1.5,3.1,2.8c0.1,0.2,0.1,0.4,0.2,0.5c0.4,1,0.4,2.1,0.5,3.2c0,4.5,0,9,0,13.5c-1.8,0-3.6,0-5.4,0c0-3.8,0-7.6,0-11.3
			c0-1,0.1-2.1-0.3-3.1c-0.3-0.8-1.1-1.5-1.9-1.6c-1.4-0.3-3-0.1-4,1c-0.8,0.8-1.1,1.9-1.2,3c-0.1,0.9,0,1.8,0,2.7
			c0,3.1,0,6.3,0,9.4c-1.8,0-3.5,0-5.3,0c0-6.7,0-13.4,0-20.1c1.7,0,3.4,0,5.1,0c0,0.9,0,1.8,0,2.8c0.3-0.2,0.4-0.5,0.7-0.8
			c0.6-0.9,1.5-1.6,2.5-2C-221.8,505.3-221.6,505.2-221.5,505.2z"/>
	</g>
	<g>
		<path fill="#FFF198" d="M-301.6,499.3L-301.6,499.3c1.5,1.2,3.3,1.8,5.1,1.8c0.1,2.4-1,4.8-2.8,6.4c-1.1-1.2-2-2.6-2.4-4.2
			C-302,502-301.9,500.7-301.6,499.3z"/>
	</g>
</g>
</svg>
