<?xml version="1.0" encoding="utf-8"?>
<!-- Generator: Adobe Illustrator 15.0.0, SVG Export Plug-In  -->
<!DOCTYPE svg PUBLIC "-//W3C//DTD SVG 1.1//EN" "http://www.w3.org/Graphics/SVG/1.1/DTD/svg11.dtd" [
	<!ENTITY ns_flows "http://ns.adobe.com/Flows/1.0/">
]>
<svg version="1.1"
	 xmlns="http://www.w3.org/2000/svg" xmlns:xlink="http://www.w3.org/1999/xlink" xmlns:a="http://ns.adobe.com/AdobeSVGViewerExtensions/3.0/"
	 x="0px" y="0px" width="776px" height="365px" viewBox="0 0 776 365" overflow="visible" enable-background="new 0 0 776 365"
	 xml:space="preserve">
<defs>
</defs>
<path d="M111.268,238.008h-2.331c-15.292,0-35.248-8.732-41.987-21.396c-1.818-2.837,3.627-4.804,5.184-1.966
	c5.96,10.922,23.583,18.783,36.803,18.783h2.331c19.44,0,36.027-7.861,36.027-24.678c0-18.995-19.178-23.581-38.1-26.64
	c-14.773-2.402-38.1-7.861-38.1-24.456v-1.964c0-17.906,19.699-25.549,37.583-25.549h1.555c15.807,0,26.695,5.896,34.729,11.791
	c2.85,2.182-0.779,5.677-3.629,3.497c-7.775-5.681-17.625-10.702-31.1-10.702h-1.555c-14.775,0-32.4,5.893-32.4,20.963v1.964
	c0,11.576,17.885,17.47,33.692,20.31c21.513,3.71,42.767,8.077,42.767,30.786C152.737,229.496,131.742,238.008,111.268,238.008z"/>
<path d="M111.268,240.186h-2.331c-15.345,0-36.497-8.622-43.908-22.553c-0.771-1.193-0.857-2.707-0.143-4.01
	c0.843-1.543,2.695-2.536,4.716-2.536c1.918,0,3.579,0.937,4.441,2.508c5.679,10.405,22.946,17.651,34.894,17.651h2.331
	c16.362,0,33.851-5.911,33.851-22.496c0-17.187-17.922-21.522-36.271-24.49c-9.876-1.604-39.929-6.491-39.929-26.605v-1.964
	c0-19.052,20.609-27.725,39.76-27.725h1.555c17.362,0,28.871,6.969,36.017,12.21c1.663,1.274,2.304,3.143,1.706,4.903
	c-0.991,2.933-5.192,4.183-7.948,2.078c-6-4.384-15.669-10.254-29.774-10.254h-1.555c-11.223,0-30.222,3.959-30.222,18.787v1.964
	c0,10.821,19.986,16.025,31.903,18.163c19.842,3.428,44.556,7.69,44.556,32.933C154.915,231.955,131.402,240.186,111.268,240.186z
	 M69.602,215.439c-0.476,0-0.84,0.216-0.914,0.306c6.627,11.952,26.1,20.085,40.249,20.085h2.331
	c18.125,0,39.292-7.087,39.292-27.08c0-13.434-8.016-19.939-20.316-23.973c10.34,3.843,19.229,10.653,19.229,23.973
	c0,16.312-14.995,26.852-38.205,26.852h-2.331c-13.446,0-32.211-7.999-38.716-19.915C70.131,215.524,69.923,215.439,69.602,215.439z
	 M108.678,132.32c-17.625,0-35.405,7.228-35.405,23.371v1.964c0,9.976,9.681,16.896,29.545,21.065
	c-18.828-4.4-28.718-11.622-28.718-21.065v-1.964c0-15.984,17.367-23.141,34.578-23.141h1.555c15.38,0,25.848,6.347,32.386,11.12
	c0.633,0.484,1.16,0.13,1.213,0.006c-6.812-4.867-17.513-11.356-33.599-11.356H108.678z"/>
<path d="M221.293,238.008h-2.852c-21.511,0-38.879-14.627-38.879-32.75v-42.364c0-18.121,17.368-32.752,38.879-32.752h2.852
	c21.25,0,38.875,14.631,38.875,32.752v42.364C260.168,223.381,242.804,238.008,221.293,238.008z M254.726,162.894
	c0-15.5-15.032-28.166-33.433-28.166h-2.852c-18.402,0-33.434,12.667-33.434,28.166v42.364c0,15.502,15.032,28.17,33.434,28.17
	h2.852c18.4,0,33.433-12.668,33.433-28.17V162.894z"/>
<path d="M221.293,240.186h-2.852c-22.638,0-41.057-15.665-41.057-34.928v-42.364c0-19.259,18.418-34.928,41.057-34.928h2.852
	c22.636,0,41.053,15.668,41.053,34.928v42.364C262.346,224.521,243.929,240.186,221.293,240.186z M218.441,132.32
	c-20.236,0-36.701,13.717-36.701,30.574v42.364c0,16.857,16.465,30.572,36.701,30.572h2.852c20.234,0,36.697-13.715,36.697-30.572
	v-42.364c0-16.857-16.463-30.574-36.697-30.574H218.441z M221.293,235.602h-2.852c-19.638,0-35.612-13.613-35.612-30.344v-42.364
	c0-16.731,15.975-30.344,35.612-30.344h2.852c19.636,0,35.61,13.613,35.61,30.344v42.364
	C256.903,221.989,240.929,235.602,221.293,235.602z M218.441,136.904c-17.236,0-31.258,11.661-31.258,25.99v42.364
	c0,14.33,14.022,25.989,31.258,25.989h2.852c17.234,0,31.252-11.659,31.252-25.989v-42.364c0-14.329-14.018-25.99-31.252-25.99
	H218.441z"/>
<path d="M362.88,130.142c-1.294,0-2.589,0.871-2.589,2.402v13.538v14.851v45.856v3.24c-1.832,13.104-16.302,23.399-33.491,23.399
	h-2.85c-18.405,0-33.436-12.668-33.436-28.39v-72.494c0-1.531-1.297-2.402-2.85-2.402c-1.297,0-2.594,0.871-2.594,2.402v72.494
	c0,18.343,17.367,32.97,38.879,32.97h2.85c14.079,0,28.392-6.396,33.491-15.6v28.704c0,15.502-15.035,28.167-33.438,28.167h-2.85
	c-16.324,0-31.879-7.421-36.025-18.775c-0.518-1.311-1.553-1.747-2.591-1.747c-1.294,0-2.852,0.871-2.852,2.182
	c0,0.439,0,0.655,0.259,0.871c4.926,13.979,23.587,22.056,41.209,22.056h2.85c21.515,0,38.877-14.631,38.877-32.754V132.544
	C365.73,131.013,364.179,130.142,362.88,130.142z"/>
<path d="M326.853,286.044h-2.85c-17.234,0-37.474-7.938-43.123-23.119c-0.523-0.737-0.523-1.522-0.523-1.986
	c0-2.605,2.602-4.364,5.03-4.364c2.115,0,3.843,1.168,4.619,3.126c3.688,10.104,17.979,17.399,33.998,17.399h2.85
	c17.238,0,31.26-11.659,31.26-25.988v-22.386c-7.016,6.872-19.082,11.459-31.313,11.459h-2.85
	c-22.638,0-41.057-15.767-41.057-35.148v-72.494c0-2.567,2.095-4.578,4.771-4.578c2.915,0,5.025,1.923,5.025,4.578v72.494
	c0,14.452,14.024,26.208,31.26,26.208h2.85c15.884,0,29.648-9.449,31.333-21.519l-0.021-2.939v-74.245
	c0-2.567,2.093-4.578,4.767-4.578c2.42,0,5.028,1.748,5.028,4.578v118.568C367.908,270.375,349.493,286.044,326.853,286.044z
	 M284.84,261.07l0.008,0.016c4.767,13.527,23.308,20.603,39.156,20.603h2.85c20.237,0,36.701-13.714,36.701-30.576V132.544
	c-0.047-0.049-0.358-0.224-0.674-0.224c-0.004,0-0.411,0.006-0.411,0.224v77.485c-2.038,14.712-17.36,25.573-35.669,25.573h-2.85
	c-19.638,0-35.616-13.71-35.616-30.564v-72.494c-0.022-0.083-0.234-0.224-0.669-0.224c-0.004,0-0.416,0.006-0.416,0.224v72.494
	c0,16.979,16.462,30.792,36.701,30.792h2.85c13.436,0,27.014-6.22,31.586-14.476l4.083-7.372v37.13
	c0,16.731-15.976,30.344-35.616,30.344h-2.85c-18.071,0-33.727-8.312-38.069-20.208C285.807,260.923,285.287,260.858,284.84,261.07z
	"/>
<path d="M430.746,238.008c-16.854,0-30.067-11.354-30.067-25.545V86.905c0-1.527,1.294-2.398,2.589-2.398
	c1.555,0,2.854,0.653,2.854,2.398v125.558c0,11.574,10.89,20.965,24.625,20.965c1.815,0,2.85,1.091,2.85,2.402
	C433.596,236.921,432.562,238.008,430.746,238.008z"/>
<path d="M430.746,240.186c-18.083,0-32.245-12.172-32.245-27.723V86.905c0-2.565,2.096-4.578,4.767-4.578
	c3.013,0,5.032,1.842,5.032,4.578v125.558c0,10.356,10.067,18.783,22.447,18.783c2.915,0,5.027,1.929,5.027,4.583
	C435.773,237.939,434.011,240.186,430.746,240.186z M403.268,86.685c0,0-0.411,0.006-0.411,0.22v125.558
	c0,13.104,12.249,23.367,27.89,23.367c0.464,0,0.676-0.134,0.717-0.183c-0.049,0.016-0.464-0.045-0.717-0.045
	c-14.781,0-26.803-10.376-26.803-23.139V86.905C403.984,86.805,403.797,86.685,403.268,86.685z"/>
<path d="M527.886,186.042H455.57v19.216c0,15.502,15.034,28.17,33.438,28.17h2.85c14.509,0,26.953-8.081,31.614-19.214
	c0.261-1.095,1.299-1.531,2.333-1.531c1.559,0,3.114,0.871,3.114,2.182c0,0.22-0.26,0.655-0.26,0.871
	c-5.187,12.888-19.695,22.272-36.801,22.272h-2.85c-21.515,0-38.877-14.627-38.877-32.75v-42.364
	c0-18.121,17.879-32.752,39.137-32.752h2.068c21.511,0,39.398,13.54,39.398,32.752v20.746
	C530.735,184.95,529.437,186.042,527.886,186.042z M525.288,162.894c0-15.5-15.029-28.166-33.43-28.166h-2.589
	c-18.4,0-33.699,12.667-33.699,28.166v18.56h69.718V162.894z"/>
<path d="M491.858,240.186h-2.85c-22.643,0-41.055-15.665-41.055-34.928v-42.364c0-19.259,18.534-34.928,41.315-34.928h2.068
	c23.701,0,41.576,15.013,41.576,34.928v20.746c0,2.526-2.259,4.578-5.027,4.578h-70.133v17.041c0,14.33,14.02,25.989,31.256,25.989
	h2.85c13.23,0,25.134-7.181,29.611-17.875c0.346-1.608,2.093-2.866,4.336-2.866c2.967,0,5.292,1.917,5.292,4.36
	c0,0.488-0.151,0.896-0.257,1.181l-0.163,0.504C524.995,230.688,509.392,240.186,491.858,240.186z M489.269,132.32
	c-20.378,0-36.963,13.717-36.963,30.574v42.364c0,16.857,16.467,30.572,36.703,30.572h2.85c15.685,0,29.595-8.309,34.692-20.696
	c0.016-0.065,0.033-0.122,0.053-0.179c-0.167-0.008-0.452-0.098-0.798-0.098c-5.468,12.49-18.983,20.745-33.947,20.745h-2.85
	c-19.638,0-35.612-13.613-35.612-30.344v-21.393h74.489c0.391,0,0.643-0.201,0.684-0.285l-0.012-20.687
	c0-17.429-16.002-30.574-37.22-30.574H489.269z M527.47,183.631h-74.074v-20.737c0-16.731,16.088-30.344,35.873-30.344h2.589
	c19.638,0,35.612,13.613,35.612,30.344V183.631z M457.752,179.277h65.362v-16.383c0-14.329-14.024-25.99-31.256-25.99h-2.589
	c-17.382,0-31.517,11.661-31.517,25.99V179.277z"/>
<path d="M635.137,238.008c-1.294,0-2.593-0.871-2.593-2.402v-72.492c0-15.72-15.29-28.386-33.69-28.386h-2.594
	c-18.4,0-33.694,11.791-33.694,26.204v74.674c0,1.531-1.295,2.402-2.846,2.402c-1.299,0-2.597-0.871-2.597-2.402V132.544
	c0-1.531,1.298-2.182,2.597-2.182c1.551,0,2.846,0.651,2.846,2.182v13.538c4.93-9.392,19.442-15.939,33.694-15.939h2.594
	c21.51,0,39.137,14.631,39.137,32.972v72.492C637.991,237.137,636.432,238.008,635.137,238.008z"/>
<path d="M635.137,240.186c-2.679,0-4.771-2.011-4.771-4.58v-72.492c0-14.45-14.134-26.21-31.513-26.21h-2.594
	c-17.081,0-31.517,11.005-31.517,24.028v74.674c0,2.654-2.112,4.58-5.023,4.58c-2.679,0-4.771-2.011-4.771-4.58V132.544
	c0-2.528,2.003-4.362,4.771-4.362c3.004,0,5.023,1.753,5.023,4.362v7.053c6.978-6.978,19.097-11.63,31.517-11.63h2.594
	c22.784,0,41.315,15.766,41.315,35.148v72.492C640.169,238.436,637.555,240.186,635.137,240.186z M596.26,132.55h2.594
	c19.78,0,35.868,13.713,35.868,30.564v72.492c0,0.224,0.415,0.224,0.415,0.224c0.318,0,0.631-0.175,0.692-0.269l-0.017-72.447
	c0-16.98-16.576-30.794-36.959-30.794h-2.594c-13.69,0-27.348,6.351-31.761,14.773l-4.111,7.828v-22.343
	c-0.037,0.032-0.285-0.041-0.668-0.041c-0.276,0-0.456,0.069-0.5,0.102l0.085,102.967c0,0.22,0.407,0.224,0.415,0.224
	c0.432,0,0.644-0.138,0.672-0.171l-0.004-74.727C560.388,145.282,576.479,132.55,596.26,132.55z"/>
<path d="M678.312,212.463v-77.302h-13.995c-3.888,0-3.888-4.583,0-4.583h13.995V86.691c0-3.059,5.439-3.059,5.439,0v43.886h23.07
	c3.627,0,3.627,4.583,0,4.583h-23.07v77.302c0,11.574,10.629,20.965,24.625,20.965c3.628,0,3.628,4.58,0,4.58
	C691.271,238.008,678.312,226.654,678.312,212.463z"/>
<path d="M708.376,240.186c-18.079,0-32.241-12.172-32.241-27.723v-75.12h-11.817c-3.314,0-5.097-2.304-5.097-4.472
	c0-2.168,1.783-4.472,5.097-4.472h11.817V86.691c0-2.55,2.104-4.472,4.897-4.472c2.792,0,4.901,1.921,4.901,4.472v41.708h20.888
	c3.184,0,4.901,2.304,4.901,4.472c0,2.167-1.718,4.472-4.901,4.472h-20.888v75.12c0,10.536,9.859,18.783,22.442,18.783
	c3.18,0,4.901,2.304,4.901,4.47C713.277,237.882,711.556,240.186,708.376,240.186z M663.617,132.906c0.098,0,0.313,0.079,0.7,0.079
	h16.169v79.478c0,13.104,12.254,23.367,27.89,23.367c0.375,0,0.529-0.098,0.55-0.122c-0.021-0.008-0.175-0.106-0.55-0.106
	c-15.025,0-26.798-10.161-26.798-23.139v-79.478h25.244c0.37,0,0.525-0.098,0.546-0.124c-0.021-0.008-0.176-0.104-0.546-0.104
	h-25.244V86.691c-0.024-0.031-1.034-0.063-1.12,0.033l0.028,46.033h-16.169c-0.42,0-0.64,0.094-0.721,0.151
	C663.604,132.906,663.613,132.906,663.617,132.906z"/>
<path d="M776.43,364.804H0V0h776.43V364.804z M10.888,353.91h754.651V10.89H10.888V353.91z"/>
</svg>
