<?xml version="1.0" encoding="utf-8"?>
<!-- Generator: Adobe Illustrator 16.0.0, SVG Export Plug-In . SVG Version: 6.00 Build 0)  -->
<!DOCTYPE svg PUBLIC "-//W3C//DTD SVG 1.1//EN" "http://www.w3.org/Graphics/SVG/1.1/DTD/svg11.dtd">
<svg version="1.1" id="Layer_1" xmlns="http://www.w3.org/2000/svg" xmlns:xlink="http://www.w3.org/1999/xlink" x="0px" y="0px"
	 width="120px" height="30px" viewBox="0 0 120 30" enable-background="new 0 0 120 30" xml:space="preserve">
<g>
	<path fill="#E75B47" d="M113.647,6.842c0,0,1.626-7.904,5.087-6.187c3.888,1.93-4.654,14.389-4.654,14.389
		s-9.063-11.151-5.79-13.68C111.525-1.133,113.647,6.842,113.647,6.842z"/>
	<g>
		<path fill="#5A5B5B" d="M0.568,7.732H4.88l2.408,9.1l2.828-9.156h3.668l2.856,9.184l2.464-9.128h4.228l-4.676,15.12H14.82
			l-2.884-9.212l-2.94,9.212H5.188L0.568,7.732z"/>
		<path fill="#5A5B5B" d="M21.676,15.32v-0.056c0-4.312,3.472-7.812,8.148-7.812c4.648,0,8.092,3.444,8.092,7.756v0.056
			c0,4.312-3.472,7.812-8.148,7.812C25.121,23.076,21.676,19.632,21.676,15.32z M33.716,15.32v-0.056
			c0-2.212-1.596-4.144-3.948-4.144c-2.436,0-3.892,1.876-3.892,4.088v0.056c0,2.212,1.596,4.144,3.948,4.144
			C32.26,19.408,33.716,17.532,33.716,15.32z"/>
		<path fill="#5A5B5B" d="M38.193,7.732h4.256v3.024c0.868-2.072,2.268-3.416,4.788-3.304v4.452h-0.224
			c-2.828,0-4.564,1.708-4.564,5.292v5.544h-4.256V7.732z"/>
		<path fill="#5A5B5B" d="M47.095,2.3h4.256v10.892l4.984-5.46h5.096l-5.712,5.908l5.908,9.1h-4.928l-3.836-6.16l-1.512,1.596v4.564
			h-4.256V2.3z"/>
		<path fill="#5A5B5B" d="M60.869,7.732h4.256v2.156c1.036-1.4,2.464-2.436,4.676-2.436c3.5,0,6.832,2.744,6.832,7.756v0.056
			c0,5.012-3.276,7.756-6.832,7.756c-2.268,0-3.668-1.036-4.676-2.24v6.44h-4.256V7.732z M72.377,15.264v-0.056
			c0-2.492-1.68-4.144-3.668-4.144s-3.641,1.652-3.641,4.144v0.056c0,2.492,1.652,4.144,3.641,4.144S72.377,17.784,72.377,15.264z"
			/>
		<path fill="#5A5B5B" d="M76.237,15.32v-0.056c0-4.312,3.473-7.812,8.148-7.812c4.647,0,8.092,3.444,8.092,7.756v0.056
			c0,4.312-3.472,7.812-8.148,7.812C79.682,23.076,76.237,19.632,76.237,15.32z M88.277,15.32v-0.056
			c0-2.212-1.596-4.144-3.948-4.144c-2.436,0-3.892,1.876-3.892,4.088v0.056c0,2.212,1.596,4.144,3.948,4.144
			C86.821,19.408,88.277,17.532,88.277,15.32z"/>
		<path fill="#5A5B5B" d="M92.754,7.732h4.256v2.156c1.036-1.4,2.464-2.436,4.676-2.436c3.5,0,6.832,2.744,6.832,7.756v0.056
			c0,5.012-3.276,7.756-6.832,7.756c-2.268,0-3.668-1.036-4.676-2.24v6.44h-4.256V7.732z M104.262,15.264v-0.056
			c0-2.492-1.68-4.144-3.668-4.144s-3.641,1.652-3.641,4.144v0.056c0,2.492,1.652,4.144,3.641,4.144S104.262,17.784,104.262,15.264z
			"/>
	</g>
</g>
</svg>
