<?xml version="1.0" encoding="utf-8"?>
<!-- Generator: Adobe Illustrator 18.0.0, SVG Export Plug-In . SVG Version: 6.00 Build 0)  -->
<!DOCTYPE svg PUBLIC "-//W3C//DTD SVG 1.1//EN" "http://www.w3.org/Graphics/SVG/1.1/DTD/svg11.dtd">
<svg version="1.1" id="Layer_1" xmlns="http://www.w3.org/2000/svg" xmlns:xlink="http://www.w3.org/1999/xlink" x="0px" y="0px"
	 viewBox="0 0 609.5 86.4" enable-background="new 0 0 609.5 86.4" xml:space="preserve">
<g>
	<defs>
		<rect id="SVGID_1_" x="0" y="0" width="609.5" height="86.4"/>
	</defs>
	<clipPath id="SVGID_2_">
		<use xlink:href="#SVGID_1_"  overflow="visible"/>
	</clipPath>
	<g clip-path="url(#SVGID_2_)">
		<defs>
			<rect id="SVGID_3_" x="-25.2" y="-34.7" width="1140.8" height="760.5"/>
		</defs>
		<clipPath id="SVGID_4_">
			<use xlink:href="#SVGID_3_"  overflow="visible"/>
		</clipPath>
		<polygon clip-path="url(#SVGID_4_)" fill="#21B0E6" points="49.7,12.7 36.2,12.7 22.7,12.7 22.7,23.3 36.2,23.3 36.2,73.5 
			49.7,73.5 49.7,23.3 63.2,23.3 63.2,12.7 		"/>
		<rect x="193.2" y="12.7" clip-path="url(#SVGID_4_)" fill="#21B0E6" width="13.5" height="26"/>
		<rect x="193.2" y="49.4" clip-path="url(#SVGID_4_)" fill="#21B0E6" width="13.5" height="24.1"/>
		<polygon clip-path="url(#SVGID_4_)" fill="#21B0E6" points="193.2,38.8 176.8,38.8 176.8,12.7 163.3,12.7 163.3,73.5 176.8,73.5 
			176.8,49.4 193.2,49.4 		"/>
		<polygon clip-path="url(#SVGID_4_)" fill="#21B0E6" points="107.6,23.3 107.6,12.7 73.9,12.7 73.9,12.8 73.9,73.5 87.4,73.5 
			107.6,73.5 107.6,62.9 87.4,62.9 87.4,49.4 107.6,49.4 107.6,38.8 87.4,38.8 87.4,23.3 		"/>
		<rect x="222.9" y="12.7" clip-path="url(#SVGID_4_)" fill="#5D50A0" width="13.5" height="26"/>
		<polygon clip-path="url(#SVGID_4_)" fill="#5D50A0" points="236.4,62.9 236.4,49.4 222.9,49.4 222.9,62.9 222.9,73.5 236.4,73.5 
			256.6,73.5 256.6,62.9 		"/>
		<g clip-path="url(#SVGID_4_)">
			<defs>
				<rect id="SVGID_5_" x="-25.2" y="-34.7" width="1140.8" height="760.5"/>
			</defs>
			<clipPath id="SVGID_6_">
				<use xlink:href="#SVGID_5_"  overflow="visible"/>
			</clipPath>
			<path clip-path="url(#SVGID_6_)" fill="#21B0E6" d="M153.2,22.6v-9.4c0,0-11.8-2.4-23.9,3.4c-12,5.6-15.5,16.1-15.5,25
				c0,6.3,0.8,21.8,15.4,28.4c10.7,4.8,24,3.4,24,3.4v-9.4c0,0-24.4,3.1-24.4-20.7C128.8,19.5,153.2,22.6,153.2,22.6"/>
			<path clip-path="url(#SVGID_6_)" fill="#5D50A0" d="M295.6,73.5h13.5l-16.6-60.8h-4.7h-5.2h-4.7l-16.6,60.8h13.5l3.2-15h14.5
				L295.6,73.5z M279.9,49.4l5.3-24.7l5.3,24.7H279.9z"/>
		</g>
		<g clip-path="url(#SVGID_4_)">
			<path fill="#C2C1C1" d="M331,32h5.6v41.6H331V32z"/>
			<path fill="#C2C1C1" d="M346.5,32h5.2l5.6,16.6c1.6,4.7,3,9.7,4.3,15c-0.4-3.2-0.8-6.1-1-8.7c-0.2-2.6-0.3-5.1-0.3-7.4V32h5.6
				v41.6h-5.2l-6.3-18.7c-0.6-1.7-1.1-3.5-1.6-5.4c-0.5-1.8-1-3.8-1.4-5.8c0-0.3-0.1-0.6-0.2-0.9c-0.1-0.4-0.2-0.8-0.3-1.2
				c0.1,0.5,0.1,0.9,0.1,1.2c0,0.3,0.1,0.6,0.1,0.8l0.3,4.2l0.3,5.1c0,0.3,0,0.6,0,1.1c0,0.4,0,0.9,0,1.4l0.3,18.1h-5.5V32z"/>
			<path fill="#C2C1C1" d="M372.5,32h18.2v4.9h-6.3v36.7H379V36.9h-6.5V32z"/>
			<path fill="#C2C1C1" d="M397.4,32h14.9v4.7H403v13.2h8.2v4.7H403v14.2h9.3v4.7h-14.9V32z"/>
			<path fill="#C2C1C1" d="M420.9,32h7.4c3.1,0,5.3,0.7,6.8,2.2c1.9,1.9,2.8,4.8,2.8,8.6c0,3-0.5,5.4-1.5,7.2
				c-1,1.8-2.4,2.9-4.3,3.4l7.6,20.2h-5.7l-7.6-20.4v20.4h-5.6V32z M426.5,50.4c2.2,0,3.7-0.5,4.6-1.5c0.9-1,1.3-2.7,1.3-5.1
				c0-1.3-0.1-2.4-0.3-3.3c-0.2-0.9-0.5-1.7-0.9-2.2c-0.4-0.6-0.9-1-1.6-1.3c-0.6-0.3-1.4-0.4-2.3-0.4h-0.9V50.4z"/>
			<path fill="#C2C1C1" d="M447.6,32h5.2l5.6,16.6c1.6,4.7,3,9.7,4.3,15c-0.4-3.2-0.8-6.1-1-8.7c-0.2-2.6-0.3-5.1-0.3-7.4V32h5.6
				v41.6h-5.2l-6.3-18.7c-0.6-1.7-1.1-3.5-1.6-5.4c-0.5-1.8-1-3.8-1.4-5.8c0-0.3-0.1-0.6-0.2-0.9c-0.1-0.4-0.2-0.8-0.3-1.2
				c0.1,0.5,0.1,0.9,0.1,1.2c0,0.3,0.1,0.6,0.1,0.8l0.3,4.2l0.3,5.1c0,0.3,0,0.6,0,1.1c0,0.4,0,0.9,0,1.4l0.3,18.1h-5.5V32z"/>
			<path fill="#C2C1C1" d="M490.8,32.8v5.5c-1.7-1.2-3.2-1.8-4.6-1.8c-1.5,0-2.7,0.5-3.6,1.6c-0.9,1-1.4,2.3-1.4,4
				c0,1.5,0.3,2.7,1,3.7c0.3,0.6,0.9,1.3,1.7,2.2c0.8,0.9,1.8,1.9,3,3.2c2.3,2.3,3.8,4.3,4.7,6c0.8,1.6,1.2,3.6,1.2,6
				c0,3.2-0.9,5.9-2.7,7.9c-1.8,2-4.1,3-7,3c-2.4,0-4.4-0.7-6.1-2v-5.5c2,1.5,3.8,2.2,5.4,2.2c1.5,0,2.7-0.5,3.6-1.5
				c0.9-1,1.3-2.4,1.3-4.1c0-1.5-0.3-2.9-1-4.1c-0.3-0.6-0.8-1.2-1.4-2c-0.6-0.7-1.4-1.6-2.3-2.5c-1.4-1.4-2.6-2.6-3.5-3.7
				c-0.9-1.1-1.6-2-2.1-2.8c-0.9-1.6-1.3-3.6-1.3-6c0-3.2,0.8-5.8,2.5-7.7c1.7-1.9,4-2.9,6.9-2.9C487.1,31.4,489,31.9,490.8,32.8z"
				/>
			<path fill="#C2C1C1" d="M501,32h5.6v16.3h8.2V32h5.6v41.6h-5.6V53h-8.2v20.6H501V32z"/>
			<path fill="#C2C1C1" d="M530.2,32h5.6v41.6h-5.6V32z"/>
			<path fill="#C2C1C1" d="M545.8,32h7.4c3.6,0,6.1,0.9,7.8,2.7c1.6,1.8,2.4,4.7,2.4,8.6c0,5.5-1.6,9.1-4.9,10.7
				c-1.6,0.7-4,1.1-7.1,1.1v18.4h-5.6V32z M551.4,50.3c2.3,0,3.9-0.5,4.8-1.4c0.9-1,1.3-2.6,1.3-5.1c0-2.5-0.4-4.3-1.3-5.4
				c-0.9-1.1-2.2-1.7-4.1-1.7h-0.8V50.3z"/>
			<path fill="#C2C1C1" d="M585,32.8v5.5c-1.7-1.2-3.2-1.8-4.6-1.8c-1.5,0-2.7,0.5-3.6,1.6c-0.9,1-1.4,2.3-1.4,4
				c0,1.5,0.3,2.7,1,3.7c0.3,0.6,0.9,1.3,1.7,2.2c0.8,0.9,1.8,1.9,3,3.2c2.3,2.3,3.8,4.3,4.7,6c0.8,1.6,1.2,3.6,1.2,6
				c0,3.2-0.9,5.9-2.7,7.9c-1.8,2-4.1,3-7,3c-2.4,0-4.4-0.7-6.1-2v-5.5c2,1.5,3.8,2.2,5.4,2.2c1.5,0,2.7-0.5,3.6-1.5
				c0.9-1,1.3-2.4,1.3-4.1c0-1.5-0.3-2.9-1-4.1c-0.3-0.6-0.8-1.2-1.4-2c-0.6-0.7-1.4-1.6-2.3-2.5c-1.4-1.4-2.6-2.6-3.5-3.7
				c-0.9-1.1-1.6-2-2.1-2.8c-0.9-1.6-1.3-3.6-1.3-6c0-3.2,0.8-5.8,2.5-7.7c1.7-1.9,4-2.9,6.9-2.9C581.3,31.4,583.2,31.9,585,32.8z"
				/>
		</g>
		<g clip-path="url(#SVGID_4_)">
			<defs>
				<rect id="SVGID_7_" x="-25.2" y="-34.7" width="1140.8" height="760.5"/>
			</defs>
			<clipPath id="SVGID_8_">
				<use xlink:href="#SVGID_7_"  overflow="visible"/>
			</clipPath>
			<g opacity="0.1" clip-path="url(#SVGID_8_)">
				<g>
					<defs>
						<rect id="SVGID_9_" x="-25.2" y="383.3" width="1141.8" height="342.5"/>
					</defs>
					<clipPath id="SVGID_10_">
						<use xlink:href="#SVGID_9_"  overflow="visible"/>
					</clipPath>
					<path clip-path="url(#SVGID_10_)" fill-rule="evenodd" clip-rule="evenodd" d="M1116.6,587.5v138.3H508.4v-4.4
						c-8.1,2.5-32.6-5.1-32.9,4.4h-2.2c1.4-9.1-21.5-2.3-30.7-4.4c-4.2,1.9,2.4,1.3,2.2,4.4h-59.3c-1.6-6,10.4,1.6,8.8-4.4
						c-8.2-1.3-24-5.6-28.5,2.2c3.9,1.3,12.9-2.7,13.2,2.2h-404V447c3.2,0.8,3.8,2.9,4.4,6.6c5.2,34.5-1.8,72.5,0,98.8
						c0.8,11.6,0.9,17.6,2.2,4.4c2-19.8-0.1-9.7,0-24.2c0.1-22.1,1.8-59.2,2.2-79c0.1-3.8-2.1-10,2.2-15.4c4.7,9.9,1,28.2,2.2,41.7
						c3.3,5.4,13.6,3.9,13.2,13.2c-4.6,42.8-1.6,94.1,0,131.7c4.7,1,11.3-1.5,13.2,0c0.7,0.6-2.4,4.4-2.2,4.4
						c5.1,0.7,10.7-1.9,15.4-2.2c6.4-0.5,10.9,0.3,19.8,0c-1.2-9.8-0.1-18.8,0-28.5c0.1-11.6-0.8-23.3,0-35.1
						c0.3-3.8,3.9-7.1,4.4-11c0,0.2-2.4-3.8-2.2-6.6c0.2-2.9,2.1-4.8,2.2-6.6c0-0.4-2.3-3.4-2.2-6.6c0-0.3,2.2-0.2,2.2-2.2
						c0-1.4-2.2-2.6-2.2-2.2c0-6.5-0.1-12.2,0-17.6c0.1-5.2,1.8-10.3,0-15.4c5.4-1.9,15.2,0.6,15.4-6.6c-1-6.3-16.6,2-17.6-4.4
						c1.4-11.7-2.9-29.2,2.2-37.3h85.6c4.7,48.7,1,105.8,2.2,158.1c9.9-1.1,16.5,1.1,24.2,2.2c0.7-3,3.1-4.2,2.2-8.8
						c14.1,2.3,14-9.5,24.2-11c8.8,2.1,10.2,11.7,22,11c9.5-1.5,9-12.9,22-11c4.5,0.7,5.9,4.4,8.8,6.6c1.4,4.5,10.3,1.4,11,6.6
						c2,6.1-4.5,20.6,4.4,19.8c0.4-18.5-0.6-43,0-59.3c0.2-4.8,0.3-10.6,2.2-13.2c11.5,2.5,22.9-3.8,28.5,0
						c7.1,4.8,7.1,11.7,6.6,26.4h17.6c-1.3,5.2-3.4,10.2,4.4,11c7.3-0.7-5.8-9.6,2.2-11h37.3c3.5-23.4,5.8-54.5,6.6-83.4
						c0.4-14.2-2.4-27.5,0-39.5c11.7-0.4,20.9,0.6,28.5,0c7.3-0.6,10.1-9,15.4-2.2c3,3.8,2.7-5.8,11-2.2c3.9,17-0.2,36.8,0,54.9
						c0.1,6.1-1.9,14.4,2.2,19.8c0.3-9.2,16.8-2.2,24.2-4.4c-3.2-6.7-2.2-15,4.4-17.6c14.1-0.1,15.9-1.4,28.5,0
						c0.9,6.9,5,10.3,6.6,17.6c0.9,4.2,3.3,25.3,2.2,26.4c-2.6,2.6-0.3,0.7,0,4.4c0.4,5.4-0.8,11.9,0,17.6
						c0.5,3.9,0.4,12.5,6.6,13.2c4-7,2.1-17.1,2.2-26.3c0.1-16.3,1.1-30.1,2.2-39.5c0.5-4.1-2.3-10.7,2.2-13.2
						c8.1-2.7,12.9-6.1,19.8,0c10.2,0.1,21.7-1.2,26.3,4.4c2.6,35.2-3.4,82.3,0,114.2c0.2,1.7,2.2,2,2.2,2.2c0.6,3.2-7,14.4,0,17.6
						c6.2-10.7-2.1-22.5,11-26.3c-0.5,2.8-3.4,4.5,2.2,4.4c5.3-9.2-2.9-3.9-6.6-8.8c7.2-3.5,1.3-6.7,2.2-15.4h26.4
						c6.3,4.7,1.8,20.2,8.8,24.2c1.9-37.7,2.9-76.2,2.2-116.4c4.5-1.3,15.3,3.5,13.2-4.4c7.3-0.8,3.4-12.7,4.4-19.8
						c10.9,2.8,3.1-13,8.8-15.4c10.4-1.6,15.1,2.5,24.2,2.2c0.3,7-2.2,16.8,6.6,15.4c5-3.8,0.8-16.8,2.2-24.2
						c-0.9-5.3,10,1.2,6.6-6.6v-59.3c5.3-1.4,10.9-4.5,17.6-4.4c7.3,0.1,13.4,3.1,17.6,6.6V447c0.9,4.2,8.5,1.7,6.6,8.8v48.3
						c3.9-0.3,5.1,2.2,4.4,6.6c4.9,3.8,16.4,1.1,19.8,6.6v15.4c8.7,2.5,8.9,8.7,6.6,17.6c16.3,0.5,34-1,43.9,2.2
						c0.6,0.2,1.4,4,2.2,4.4c6.1,2.9,14.1-0.1,13.2,6.6c2.2,9-0.2,8.9,0,19.8c5.3-0.9-1.2,10,6.6,6.6c-1.8,6.5,2.3,9.1,2.2,11
						c0,0.4-4,2-2.2,4.4c1,1.3,7.1,1.7,8.8,2.2c2.9,0.9,4.2,3,8.8,2.2c4-42.5-6.3-115.5,2.2-149.3c1.8-7,0.7-5.7,4.4-8.8
						c0.3-2.6-0.4-6.2,2.2-6.6c4.9-0.9-0.3-12,6.6-11c-0.7,7.6,8.6,3.7,15.4,4.4c7.5,0.8,16.5-2.6,17.6,4.4
						c-10.3,1.4-26.3-2.9-32.9,2.2c5.3,4.2,25.3-4.6,32.9,2.2v61.5c0,14.9-2.5,31.9,0,41.7c0.2,0.7,2.3,2.9,2.2,2.2
						c0.4,4.3-5.8,10.2,2.2,11c0.1-31.3-0.2-68.2,0-96.6c0.1-12.1-1.9-23,2.2-30.7c9.2,6.1,2.2,28.5,4.4,41.7
						c1.9,5.4,12.3,2.4,11,11c1,44.2-2.3,99.9,2.2,133.9h11c6.2,0-5.2,6,4.4,4.4c6.2,0-5.2-6,4.4-4.4c4.7,4.1,16.1,1.5,24.2,2.2
						c3-22.9,0.7-42.3,2.2-63.7c0.3-4.1,3.9-6.7,4.4-11c0,0.1-2.4-3.7-2.2-6.6c0.5-7.7,1.3-3.7,0-8.8c-0.9-3.5,1.8-5.2,2.2-6.6
						c0.6-2.3-3.9-4.5-4.4-6.6c-0.9-3.5,1.6-5.1,2.2-6.6c0.8-2.1-2.2-4.1-2.2-4.4c0.2-6.1,1-11,2.2-17.6c5.4-1.9,15.2,0.6,15.4-6.6
						c-1.7-6.4-18.1,2-19.8-4.4c1.4-11.7-2.9-29.2,2.2-37.3c28.6,1.4,62.8-2.8,87.8,2.2c0.5,31.5,0.9,56.4,0,74.7
						c-0.3,7-0.1,14.1,0,22c0.1,5.2-2,13.8,2.2,19.8c5.9-5.1,21.2-0.8,30.7-2.2c4.8,10.7,7.4,10,6.6,26.3c5.2,4.5,22.3-8.3,15.4,6.6
						c7.5,1.6,2.8-8.9,11-6.6H1116.6z M826.7,455.8c2.3,18.5,1.8,19.7,0,37.3c7.1,4.2,13-3.2,17.6,4.4h-17.6
						c-2.1,8.5,8.6,9,2.2,15.4c2.6,0.3,6.2-0.4,6.6,2.2c-8.2,3,6.5,0.3,4.4,4.4c-3.4,0.2-7.6-0.3-6.6,4.4c-1.6,6,10.4-1.6,8.8,4.4
						c-4.1,1-13.2-3-11,4.4c5.1,4.4,2.4-0.6,6.6-2.2c1.3,6.8,7.7,5.9,11,11c2.2,3.4-0.5,6.9,4.4,8.8c3-33.8-0.4-63,2.2-94.4
						C848.8,455.1,836.6,450.9,826.7,455.8 M446.9,517.2c6.7-1.4,18.9,2.8,22-2.2C466,514.6,450.5,508.7,446.9,517.2 M826.7,576.5
						c0.3,4.1-2.7,12.4,4.4,11c6.1-1.2-3.1-17.7,8.8-13.2c-2.4-4.9-5.1-9.5-6.6-15.4c11.6,0.8,13.5-5.4,19.8,2.2
						c1.7-16.4-21.9,2.4-22-8.8c-3.2-8.3,6-4.2,4.4-11c-3.4-2.5-5.4-6.3-8.8-8.8C827.4,546.2,825.8,564.7,826.7,576.5 M721.3,591.9
						c-3.2-8.4,9.8-0.4,6.6-8.8c-12.7,1.5-0.4-9.3-8.8-13.2C720.5,576.6,716.3,588.9,721.3,591.9 M293.2,600.7
						c9.2-2.3,30.2,5,30.7-4.4c-9.5-1.8-18.6,2.6-24.2,0c-0.7-0.3,4.3-6.3-2.2-4.4C294.6,593.3,293.5,596.6,293.2,600.7
						 M328.3,600.7h11c-0.8-5.1-1.4-10.3-8.8-8.8C331,596,328,596.7,328.3,600.7 M1092.4,613.9c3.7,3.7,12.9,1.8,11-6.6
						C1096.5,606.2,1094.4,610,1092.4,613.9 M214.1,629.2c-2.7-6.8,8.4-16.7-2.2-17.6C209.3,613.4,209.9,623.8,214.1,629.2
						 M697.2,613.9V638c7.7-1.9,19.9-2.1,26.4-4.4c-0.4-8.5-0.1-16.2,2.2-22C713.8,610,708,614.4,697.2,613.9 M987,627
						c4.1,0.2,1.5,7.3,6.6,6.6c0.9-2.8,2.8-4.5,6.6-4.4c0.1,1.3,0.3,2.6,2.2,2.2c2.7-8.7-14.7-0.9-6.6-8.8
						C990.8,622,987.6,623.2,987,627 M108.7,635.8c-2.6-6.5,15.9-2.8,8.8-6.6c-8.7,2.8-4.5-7.2-13.2-4.4
						C104,630.3,105.5,633.9,108.7,635.8 M152.6,635.8c5.4-3.9,14.9,5,15.4-6.6c-6,1.4-17.4-2.8-19.8,2.2
						C150.9,631.7,153.4,632.1,152.6,635.8 M354.7,638c5.9,1.8,10.4,3.5,13.2,0c1.1-1.3,2.8,2.2,2.2,2.2c1.8-0.1,4.2-2.2,4.4-2.2
						c2.1-0.1,2.7,2.4,4.4,2.2c5.8-0.6,16.3-1.1,19.8-6.6c-23.1,1.7-25.8,0.6-50.5,0C347.3,639,350.8,636.8,354.7,638 M642.3,649
						c5.1,3.2-4.3,7,4.4,6.6c3.3-0.4,2-5.3,2.2-8.8c-3.9,1.3-12.9-2.7-13.2,2.2H642.3z M264.6,660c0.3,2.6-0.4,6.2,2.2,6.6v-13.2
						H258C254.6,661.2,265.5,654.7,264.6,660 M850.9,668.7c5.9-0.1,13.4,2,17.6-2.2h-39.5h-19.8h-8.8H796c-1.7,0.5-4.3,0.1-4.4,2.2
						C810.6,668.6,834.8,669,850.9,668.7 M635.7,673.1h-11c-7.9-0.9-3,4,2.2,2.2c6.1,2,20.6-4.5,19.8,4.4
						c-6.9-0.3-13.3-0.1-15.4,4.4c7.5,4.6,0.8,6.4,0,13.2c13-6.2-0.2,8,8.8,8.8c0.5-3.9-2.2-11,4.4-8.8c-0.5,11.2,0.1,24.4,2.2,17.6
						c2-6.5-1.5-12.4,0-17.6c2.6-0.3,6.2,0.4,6.6-2.2c-1.3-3-8.4-0.3-8.8-4.4c2.6-0.3,6.2,0.4,6.6-2.2c-6.5-2.6,7.2-2.7,6.6-6.6
						c-5.5,0.4-6.9-3.4-8.8-6.6c3.9-1.3,12.9,2.7,13.2-2.2c-1.7-0.5-2.6-1.8-2.2-4.4c-7.5,2.2-6.6-0.9-11,4.4v-4.4
						c-7.1-2.7-1.7,7.1-8.8,4.4c-0.2-2.7-0.7-5.2-4.4-4.4V673.1z M789.4,675.3h43.9h19.8h11c3.7,0.5,5.4-2.5,0-2.2h-41.7h-19.8h-11
						c-3.6-0.7-5.9,3-2.2,4.4V675.3z M530.3,677.5c-2.1,4.5-7.1,6.1-11,8.8c9.1,0.4,18.3,0.8,22-4.4c3.4,4.1,8.6-3.2,13.2,2.2
						c0.5-3.9,3.8-5,8.8-4.4c0,2.9,3.8,2,4.4,4.4c-2.9-0.3-15.9-0.3-8.8,2.2c12.9,1.4,16.7-0.9,19.8-6.6c4.8-1.4,7,6.2,6.6-2.2
						C567.5,680.9,546.4,674.3,530.3,677.5 M756.5,679.7c-0.4,5.5,3.4,6.9,6.6,8.8c1.8-2.5,2.9-5.9,2.2-11
						C761.4,677.4,758.4,678,756.5,679.7 M723.5,681.9c-0.7,5.8,4.6,5.7,8.8,6.6c0.6-1.3,5.5-8.4,0-8.8
						C731.9,683,727,681.7,723.5,681.9 M848.7,681.9c6-0.1,14.8,1.8,19.8-2.2h-39.5h-19.8h-11h-4.4c-1.7,0.5-4.3,0.1-4.4,2.2
						C808.9,681.8,831.8,682.1,848.7,681.9 M785,686.3c-2.3,0.1-1.7,2.8,2.2,2.2h35.1h37.3c-0.9-4.9-10.8-0.9-15.4-2.2h-17.6
						C812.8,687.2,792.3,684.9,785,686.3 M519.3,699.5c6.9,2.5,5.3-3.4,8.8-4.4c0.3,4.1,7.4,1.3,8.8,4.4v-8.8
						c-4.8-2-9.4,0.3-17.6-2.2V699.5z M567.6,706.1c-4.7-6.8,4.4-12.1,0-17.6h-6.6C561.5,696.1,560.3,705.4,567.6,706.1
						 M993.6,703.9c3.5-8.1-0.5,8.9,6.6,4.4c1.3-5.2-2.8-15.9,2.2-17.6h6.6v13.2c8.3,1.8,2.8-10.4,4.4-15.4h-17.6
						C1000.1,699.9,987.6,698.8,993.6,703.9 M106.5,706.1c5.6-2.4,7.7,9.5,11,2.2c-3.6-0.3-3.6-15.1,0-15.4h6.6
						c1.3,4.5-2.7,14.4,2.2,15.4c3.4-3.2,1.9-11.2,2.2-17.6h-15.4C111.6,696.5,108.9,701.1,106.5,706.1 M611.6,706.1
						c-0.3-5.4-0.4-10.7,4.4-11c4.4,1.5-1.4,13.1,6.6,11v-11c-4.2-0.9-5.5-4.7-11-4.4C609.4,697.1,600.6,704.5,611.6,706.1
						 M157,706.1c6.5-4.2,13.6,0.7,17.6-2.2c0.5-4.2-2.5-4.8-2.2-8.8C163.2,694.7,154.7,695,157,706.1"/>
				</g>
			</g>
		</g>
	</g>
</g>
</svg>
